<svg width="21" height="17" viewBox="0 0 21 17" fill="none" xmlns="http://www.w3.org/2000/svg">
<path d="M3.9212 9.39628H14.7827C15.3005 9.39628 15.7202 8.97653 15.7202 8.45878C15.7202 7.94104 15.3005 7.52129 14.7827 7.52129H3.9212L5.13332 6.30916C5.49944 5.94304 5.49944 5.34948 5.13332 4.98336C4.76726 4.61723 4.17364 4.61723 3.80751 4.98336L0.995146 7.79579C0.973208 7.81772 0.952458 7.84072 0.932833 7.86472C0.924271 7.87516 0.916833 7.88622 0.908771 7.89691C0.898458 7.91066 0.887833 7.9241 0.878271 7.93841C0.869521 7.95147 0.861959 7.96503 0.853959 7.97841C0.846271 7.99128 0.838209 8.00385 0.831146 8.0171C0.823771 8.03085 0.817584 8.04497 0.810959 8.05897C0.804459 8.07266 0.797646 8.08616 0.791834 8.10016C0.786209 8.11385 0.781584 8.12778 0.776646 8.14166C0.771209 8.15666 0.765459 8.17147 0.760834 8.18678C0.756646 8.20066 0.753584 8.21472 0.750084 8.22878C0.746146 8.24435 0.741771 8.25985 0.738646 8.27572C0.735459 8.29191 0.733521 8.30828 0.731209 8.3246C0.729209 8.33853 0.726521 8.35228 0.725146 8.36641C0.722146 8.39666 0.720584 8.4271 0.720521 8.45747C0.720521 8.45791 0.720459 8.45841 0.720459 8.45885C0.720459 8.45928 0.720521 8.45978 0.720521 8.46022C0.720584 8.49066 0.722146 8.52103 0.725146 8.55134C0.726521 8.56528 0.729146 8.57885 0.731084 8.59266C0.733459 8.60916 0.735396 8.62566 0.738646 8.64203C0.741771 8.65778 0.746084 8.67303 0.750021 8.68847C0.753584 8.70266 0.756709 8.71697 0.760959 8.73103C0.765521 8.74609 0.771209 8.76066 0.776459 8.77541C0.781521 8.78953 0.786146 8.80372 0.791896 8.81759C0.797584 8.83134 0.804271 8.84453 0.810646 8.85797C0.817396 8.87228 0.823771 8.88672 0.831271 8.90078C0.838146 8.91359 0.845959 8.92578 0.853396 8.93822C0.861584 8.95203 0.869396 8.96597 0.878396 8.97941C0.887521 8.99309 0.897708 9.00591 0.907521 9.01909C0.916021 9.03041 0.923896 9.04209 0.932958 9.05309C0.951646 9.07584 0.971458 9.09766 0.992146 9.11859C0.993146 9.11959 0.993958 9.12072 0.994958 9.12172L3.80745 11.9343C3.99057 12.1173 4.23045 12.2089 4.47038 12.2089C4.71026 12.2088 4.95026 12.1173 5.13326 11.9343C5.49938 11.5682 5.49938 10.9747 5.13332 10.6085L3.9212 9.39628Z" fill="white"/>
<path d="M19.7829 0.0212402H7.90796C7.39021 0.0212402 6.97046 0.440989 6.97046 0.958737V4.70873C6.97046 5.22647 7.39021 5.64622 7.90796 5.64622C8.4257 5.64622 8.84545 5.22647 8.84545 4.70873V1.89623H18.8454V15.0213H8.84545V12.2087C8.84545 11.691 8.4257 11.2712 7.90796 11.2712C7.39021 11.2712 6.97046 11.691 6.97046 12.2087V15.9588C6.97046 16.4765 7.39021 16.8962 7.90796 16.8962H19.7829C20.3007 16.8962 20.7204 16.4765 20.7204 15.9588V0.958737C20.7204 0.440989 20.3007 0.0212402 19.7829 0.0212402Z" fill="white"/>
</svg>
